# xmcd
#
# Track frame offsets: 
#        150
#        19227
#        36773
#        54805
#        68157
#        83556
#        94683
#        108857
#        124765
#        142747
#        158220
#        173702
#        187640
#        204686
#        221064
#        237316
#
# Disc length: 3395 seconds
#
# Revision: 0
# Processed by: cddbd v1.5.2PL0 Copyright (c) Steve Scherf et al.
# Submitted via: ExactAudioCopyFreeDBPlugin 1.0
#
DISCID=c90d4110
DTITLE=Howlin' Bill - Midnight Hero - In The Studio - Disk 1
DYEAR=2013
DGENRE=Blues
TTITLE0=Gone Too Soon
TTITLE1=Don't Wanna Go Home
TTITLE2=Foxy Little Lady
TTITLE3=Midnight Hero
TTITLE4=Need A Ride
TTITLE5=Circus Is Coming To Town
TTITLE6=This Time No Lies
TTITLE7=Strongest Man Alive
TTITLE8=A Date With The Devil
TTITLE9=Get Outta My Life
TTITLE10=Night Nurse
TTITLE11=Bellboy John
TTITLE12=Rat Race
TTITLE13=My Baby
TTITLE14=Howl
TTITLE15=So Close
EXTD=
EXTT0=
EXTT1=
EXTT2=
EXTT3=
EXTT4=
EXTT5=
EXTT6=
EXTT7=
EXTT8=
EXTT9=
EXTT10=
EXTT11=
EXTT12=
EXTT13=
EXTT14=
EXTT15=
PLAYORDER=
